<?xml version="1.0" encoding="UTF-8" standalone="no"?>
<!DOCTYPE svg PUBLIC "-//W3C//DTD SVG 1.1//EN"
 "http://www.w3.org/Graphics/SVG/1.1/DTD/svg11.dtd">
<!-- Generated by graphviz version 2.40.1 (20161225.0304)
 -->
<!-- Title: state transitions Pages: 1 -->
<svg width="201pt" height="270pt"
 viewBox="0.00 0.00 201.00 270.00" xmlns="http://www.w3.org/2000/svg" xmlns:xlink="http://www.w3.org/1999/xlink">
<g id="graph0" class="graph" transform="scale(1 1) rotate(0) translate(4 266)">
<title>state transitions</title>
<polygon fill="#ffffff" stroke="transparent" points="-4,4 -4,-266 197,-266 197,4 -4,4"/>
<g id="clust1" class="cluster state regular">
<title>cluster_next_state</title>
<path fill="none" stroke="#000000" stroke-width="2" d="M20,-8C20,-8 173,-8 173,-8 179,-8 185,-14 185,-20 185,-20 185,-242 185,-242 185,-248 179,-254 173,-254 173,-254 20,-254 20,-254 14,-254 8,-248 8,-242 8,-242 8,-20 8,-20 8,-14 14,-8 20,-8"/>
<text text-anchor="start" x="69.3208" y="-235.2" font-family="Helvetica,sans-Serif" font-size="12.00" fill="#000000">next_state</text>
</g>
<!-- next_state -->
<!-- S0 -->
<g id="node2" class="node state regular">
<title>S0</title>
<polygon fill="#ffffff" fill-opacity="0.003922" stroke="transparent" stroke-width="2" points="73,-216 17,-216 17,-180 73,-180 73,-216"/>
<text text-anchor="start" x="37.6632" y="-194.2" font-family="Helvetica,sans-Serif" font-size="12.00" fill="#000000">S0</text>
<path fill="none" stroke="#000000" stroke-width="2" d="M29.3333,-181C29.3333,-181 60.6667,-181 60.6667,-181 66.3333,-181 72,-186.6667 72,-192.3333 72,-192.3333 72,-203.6667 72,-203.6667 72,-209.3333 66.3333,-215 60.6667,-215 60.6667,-215 29.3333,-215 29.3333,-215 23.6667,-215 18,-209.3333 18,-203.6667 18,-203.6667 18,-192.3333 18,-192.3333 18,-186.6667 23.6667,-181 29.3333,-181"/>
</g>
<!-- S0&#45;&gt;S0 -->
<g id="edge2" class="edge transition">
<title>S0&#45;&gt;S0</title>
<path fill="none" stroke="#000000" d="M73.0183,-202.8247C84.888,-203.1883 95,-201.5801 95,-198 95,-195.5387 90.2205,-194.0094 83.3762,-193.4121"/>
<polygon fill="#000000" stroke="#000000" points="83.0957,-189.9049 73.0183,-193.1753 82.9356,-196.903 83.0957,-189.9049"/>
<text text-anchor="start" x="95" y="-195" font-family="Helvetica,sans-Serif" font-size="10.00" fill="#000000">not (x == 1) &#160;&#160;</text>
</g>
<!-- S1 -->
<g id="node3" class="node state regular">
<title>S1</title>
<polygon fill="#ffffff" fill-opacity="0.003922" stroke="transparent" stroke-width="2" points="73,-134 17,-134 17,-98 73,-98 73,-134"/>
<text text-anchor="start" x="37.6632" y="-112.2" font-family="Helvetica,sans-Serif" font-size="12.00" fill="#000000">S1</text>
<path fill="none" stroke="#000000" stroke-width="2" d="M29.3333,-99C29.3333,-99 60.6667,-99 60.6667,-99 66.3333,-99 72,-104.6667 72,-110.3333 72,-110.3333 72,-121.6667 72,-121.6667 72,-127.3333 66.3333,-133 60.6667,-133 60.6667,-133 29.3333,-133 29.3333,-133 23.6667,-133 18,-127.3333 18,-121.6667 18,-121.6667 18,-110.3333 18,-110.3333 18,-104.6667 23.6667,-99 29.3333,-99"/>
</g>
<!-- S0&#45;&gt;S1 -->
<g id="edge1" class="edge transition">
<title>S0&#45;&gt;S1</title>
<path fill="none" stroke="#000000" d="M45,-179.8015C45,-169.3976 45,-156.1215 45,-144.3768"/>
<polygon fill="#000000" stroke="#000000" points="48.5001,-144.1476 45,-134.1476 41.5001,-144.1476 48.5001,-144.1476"/>
<text text-anchor="start" x="45" y="-154" font-family="Helvetica,sans-Serif" font-size="10.00" fill="#000000">x == 1 &#160;&#160;</text>
</g>
<!-- S1&#45;&gt;S1 -->
<g id="edge4" class="edge transition">
<title>S1&#45;&gt;S1</title>
<path fill="none" stroke="#000000" d="M73.0183,-120.8247C84.888,-121.1883 95,-119.5801 95,-116 95,-113.5387 90.2205,-112.0094 83.3762,-111.4121"/>
<polygon fill="#000000" stroke="#000000" points="83.0957,-107.9049 73.0183,-111.1753 82.9356,-114.903 83.0957,-107.9049"/>
<text text-anchor="start" x="95" y="-113" font-family="Helvetica,sans-Serif" font-size="10.00" fill="#000000">not (x == 1) &#160;&#160;</text>
</g>
<!-- S2 -->
<g id="node4" class="node state regular">
<title>S2</title>
<polygon fill="#ffffff" fill-opacity="0.003922" stroke="transparent" stroke-width="2" points="98,-52 42,-52 42,-16 98,-16 98,-52"/>
<text text-anchor="start" x="62.6632" y="-30.2" font-family="Helvetica,sans-Serif" font-size="12.00" fill="#000000">S2</text>
<path fill="none" stroke="#000000" stroke-width="2" d="M54.3333,-17C54.3333,-17 85.6667,-17 85.6667,-17 91.3333,-17 97,-22.6667 97,-28.3333 97,-28.3333 97,-39.6667 97,-39.6667 97,-45.3333 91.3333,-51 85.6667,-51 85.6667,-51 54.3333,-51 54.3333,-51 48.6667,-51 43,-45.3333 43,-39.6667 43,-39.6667 43,-28.3333 43,-28.3333 43,-22.6667 48.6667,-17 54.3333,-17"/>
</g>
<!-- S1&#45;&gt;S2 -->
<g id="edge3" class="edge transition">
<title>S1&#45;&gt;S2</title>
<path fill="none" stroke="#000000" d="M47.9149,-97.9261C49.5608,-89.0952 51.89,-78.3769 54.868,-69 55.6395,-66.5709 56.5211,-64.0808 57.4624,-61.603"/>
<polygon fill="#000000" stroke="#000000" points="60.7364,-62.8434 61.2811,-52.2626 54.257,-60.1943 60.7364,-62.8434"/>
<text text-anchor="start" x="54" y="-72" font-family="Helvetica,sans-Serif" font-size="10.00" fill="#000000">x == 1 &#160;&#160;</text>
</g>
<!-- S2&#45;&gt;S1 -->
<g id="edge6" class="edge transition">
<title>S2&#45;&gt;S1</title>
<path fill="none" stroke="#000000" d="M86.75,-52.4154C92.6123,-61.1347 96.6897,-71.6604 92,-81 89.432,-86.1142 85.7234,-90.6707 81.4993,-94.6677"/>
<polygon fill="#000000" stroke="#000000" points="78.9814,-92.2065 73.4745,-101.2577 83.4239,-97.6162 78.9814,-92.2065"/>
<text text-anchor="start" x="94" y="-72" font-family="Helvetica,sans-Serif" font-size="10.00" fill="#000000">not (x == 1) &#160;&#160;</text>
</g>
<!-- S2&#45;&gt;S2 -->
<g id="edge5" class="edge transition">
<title>S2&#45;&gt;S2</title>
<path fill="none" stroke="#000000" d="M98.0183,-38.8247C109.888,-39.1883 120,-37.5801 120,-34 120,-31.5387 115.2205,-30.0094 108.3762,-29.4121"/>
<polygon fill="#000000" stroke="#000000" points="108.0957,-25.9049 98.0183,-29.1753 107.9356,-32.903 108.0957,-25.9049"/>
<text text-anchor="start" x="120" y="-31" font-family="Helvetica,sans-Serif" font-size="10.00" fill="#000000">x == 1 &#160;&#160;</text>
</g>
</g>
</svg>
